<?xml version="1.0" encoding="UTF-8" standalone="no"?>
<svg
   xmlns:dc="http://purl.org/dc/elements/1.1/"
   xmlns:cc="http://creativecommons.org/ns#"
   xmlns:rdf="http://www.w3.org/1999/02/22-rdf-syntax-ns#"
   xmlns:svg="http://www.w3.org/2000/svg"
   xmlns="http://www.w3.org/2000/svg"
   viewBox="0 0 316 120"
   version="1.1"
   style="width: 100%; margin: 0;"
   >
  <g
     style="display:inline"
     id="layer2">
    <path
       id="path8"
       d="m 94.210782,116.81717 c 10.884408,-5.54588 7.946668,-33.337755 -6.34375,-63.031251"
       style="fill:none;stroke:#66595c;stroke-width:5;stroke-linecap:round" />
    <path
       d="m 128.52329,63.973419 c 0.12239,-2.335348 -0.71341,-4.638794 -2.37555,-6.854295 m -12.43695,20.604295 c 8.99437,-3.489189 14.52504,-8.265012 14.8125,-13.75"
       style="fill:none;stroke:#66595c;stroke-width:5;stroke-linecap:round"
       id="path4187" />
    <g
       transform="matrix(1.0178476,0,0,0.97945631,-0.65479983,1.9388908)"
       id="g4158">
      <path
         clip-path="none"
         id="path4160"
         d="M 30.633359,102.37623 59.992586,58.33789 30.633359,14.299557 l 22.019167,0 58.717444,88.076673 -22.01917,0 -18.348631,-27.523459 -18.349643,27.523459 -22.019167,0 z m 0,0"
         style="clip-rule:nonzero;display:inline;fill:#999999;fill-opacity:1;fill-rule:nonzero;stroke:none" />
      <path
         clip-path="none"
         id="path4162"
         d="M 1.2741324,102.37623 30.633359,58.33789 1.2741324,14.299557 l 22.0191666,0 29.359227,44.038333 -29.359227,44.03834 -22.0191666,0 z m 0,0"
         style="clip-rule:nonzero;display:inline;fill:#666666;fill-opacity:1;fill-rule:nonzero;stroke:none" />
      <path
         clip-path="none"
         id="path4164"
         d="m 86.905126,54.668367 -9.786747,-14.679107 48.931711,-0.001 0,14.68012 -39.144964,0 z m 0,0"
         style="clip-rule:nonzero;display:inline;fill:#666666;fill-opacity:1;fill-rule:nonzero;stroke:none" />
      <path
         clip-path="none"
         id="path4166"
         d="m 101.58423,76.687533 -9.785733,-14.679106 34.251593,-10e-4 0,14.680118 -24.46586,0 z m 0,0"
         style="clip-rule:nonzero;display:inline;fill:#666666;fill-opacity:1;fill-rule:nonzero;stroke:none" />
    </g>
    <path
       id="path4"
       style="fill:none;stroke:#66595c;stroke-width:5;stroke-linecap:round"
       d="m 103.99204,30.004669 c 2.11268,-10.752718 0.93121,-18.913295 -4.062508,-22.1562504 -1.66457,-1.080985 -3.66023,-1.554019 -5.90625,-1.46875 -12.1285,0.46045 -31.698317,17.1600744 -47.687496,41.7812504 -18.950138,29.180653 -25.684504,58.425451 -15.03125,65.343751 5.056946,3.28402 13.115147,0.95604 22.21875,-5.53125" />
    <path
       id="path7261"
       d="M 57.023286,11.098419 C 50.869411,5.9925276 45.097838,3.2506346 40.460786,3.5984186 c -1.23461,0.0926 -2.376432,0.396859 -3.4375,0.9375 -11.318054,5.7668364 -7.702368,35.5921234 8.09375,66.5937504 15.796118,31.001631 37.775696,51.454341 49.093746,45.687501"
       style="fill:none;stroke:#66595c;stroke-width:5;stroke-linecap:round" />
    <path
       id="path6"
       d="M 126.14774,57.119124 C 118.78148,47.300473 95.185224,39.20915 66.835782,37.723419 c -3.257457,-0.170716 -6.460584,-0.260544 -9.593746,-0.25 -30.287234,0.101927 -53.9287755,8.410341 -54.5312505,19.90625 -0.286892,5.474225 4.700484,10.782383 13.2500005,15.1875"
       style="fill:none;stroke:#66595c;stroke-width:5;stroke-linecap:round" />
    <text font-family="Novacento Sans Wide" x="221.89" y="50.9215" text-anchor="middle" font-size="43.134">
      ATOM
    </text>
    <text font-family="Novacento Sans Wide" x="133" y="104.055" font-size="43.134">
      HASKELL
    </text>
  </g>
  <style><![CDATA[
    text{
        font-family: 'Novacento Sans Wide', 'Helvetica', 'Tahoma', 'Geneva', 'Arial', sans-serif;
        text-align: center;
        text-transform: uppercase;
        color: #222;
        font-weight: 200;
        line-height: 1em;
        margin: 0;
    }
    @font-face {
        font-family: 'Novacento Sans Wide';
        src: url("../fonts/Novecentosanswide-UltraLight-webfont.eot");
        src: url("../fonts/Novecentosanswide-UltraLight-webfont.eot?#iefix") format("embedded-opentype"), url("../fonts/Novecentosanswide-UltraLight-webfont.woff2") format("woff2"), url("../fonts/Novecentosanswide-UltraLight-webfont.woff") format("woff"), url("../fonts/Novecentosanswide-UltraLight-webfont.ttf") format("truetype"), url("../fonts/Novecentosanswide-UltraLight-webfont.svg#novecento_sans_wideultralight") format("svg");
        font-style: normal;
        font-weight: 200;
    }
  ]]></style>
</svg>
